# xmcd CD database file
#
# Track frame offsets:
#	150
#	13800
#	25878
#	36388
#	50303
#	60705
#	76278
#	86235
#	97315
#	111998
#	125995
#	139488
#	151653
#	162025
#
# Disc length: 2324 seconds
#
# Revision: 0
# Processed by: cddbd v1.5.1PL0 Copyright (c) Steve Scherf et al.
# Submitted via: CDex 1.51
#
DISCID=c309120e
DTITLE=Cuarteto D'Aida - El Original
DYEAR=1992
DGENRE=Salsa
TTITLE0=Profecia
TTITLE1=Las Mulatas del Cha Cha Cha
TTITLE2=Cuanto Me Alegro
TTITLE3=No Se Que Voy A Hacer
TTITLE4=Oye Mi Ritmo
TTITLE5=Nocturno Antillano
TTITLE6=Totiri Mundachi
TTITLE7=Cachita
TTITLE8=Ya No Me Quires
TTITLE9=Yenyere Cumae - El Bombon de Elena
TTITLE10=Tabaco Verde
TTITLE11=Matilda
TTITLE12=Carinitio Azucarado
TTITLE13=No Se Que Voy A Hacer
EXTD=YEAR: 1992
EXTT0=
EXTT1=
EXTT2=
EXTT3=
EXTT4=
EXTT5=
EXTT6=
EXTT7=
EXTT8=
EXTT9=
EXTT10=
EXTT11=
EXTT12=
EXTT13=
PLAYORDER=
